<svg width="48" height="52" viewBox="0 0 48 52" fill="none" xmlns="http://www.w3.org/2000/svg">
<path d="M48 11.3684C47.9999 11.9872 47.7727 12.5844 47.3616 13.0468C46.9504 13.5092 46.3838 13.8047 45.7693 13.8771L45.4737 13.8947H43.3389L40.229 45.5242C40.0597 47.2405 39.2581 48.8324 37.9801 49.9904C36.7021 51.1484 35.0391 51.7897 33.3145 51.7895H14.6855C12.9609 51.7897 11.2979 51.1484 10.0199 49.9904C8.74188 48.8324 7.94027 47.2405 7.77095 45.5242L4.66105 13.8947H2.52632C1.8563 13.8947 1.21372 13.6286 0.739941 13.1548C0.266165 12.681 0 12.0384 0 11.3684C0 10.6984 0.266165 10.0558 0.739941 9.58205C1.21372 9.10827 1.8563 8.84211 2.52632 8.84211H15.1579C15.1579 7.68094 15.3866 6.53115 15.831 5.45838C16.2753 4.38561 16.9266 3.41086 17.7477 2.58979C18.5688 1.76873 19.5435 1.11742 20.6163 0.673065C21.689 0.228708 22.8388 0 24 0C25.1612 0 26.311 0.228708 27.3837 0.673065C28.4565 1.11742 29.4312 1.76873 30.2523 2.58979C31.0734 3.41086 31.7247 4.38561 32.169 5.45838C32.6134 6.53115 32.8421 7.68094 32.8421 8.84211H45.4737C46.1437 8.84211 46.7863 9.10827 47.2601 9.58205C47.7338 10.0558 48 10.6984 48 11.3684ZM29.6842 19.5789C29.2263 19.579 28.784 19.7448 28.4389 20.0457C28.0938 20.3467 27.8694 20.7624 27.8072 21.216L27.7895 21.4737V39.1579L27.8072 39.4156C27.8696 39.8691 28.094 40.2847 28.4391 40.5855C28.7841 40.8863 29.2264 41.0521 29.6842 41.0521C30.142 41.0521 30.5843 40.8863 30.9293 40.5855C31.2744 40.2847 31.4989 39.8691 31.5613 39.4156L31.5789 39.1579V21.4737L31.5613 21.216C31.499 20.7624 31.2746 20.3467 30.9295 20.0457C30.5844 19.7448 30.1421 19.579 29.6842 19.5789ZM18.3158 19.5789C17.8579 19.579 17.4156 19.7448 17.0705 20.0457C16.7254 20.3467 16.501 20.7624 16.4387 21.216L16.4211 21.4737V39.1579L16.4387 39.4156C16.5011 39.8691 16.7256 40.2847 17.0707 40.5855C17.4157 40.8863 17.858 41.0521 18.3158 41.0521C18.7736 41.0521 19.2159 40.8863 19.5609 40.5855C19.906 40.2847 20.1304 39.8691 20.1928 39.4156L20.2105 39.1579V21.4737L20.1928 21.216C20.1306 20.7624 19.9062 20.3467 19.5611 20.0457C19.216 19.7448 18.7737 19.579 18.3158 19.5789ZM24 5.05263C22.995 5.05263 22.0311 5.45188 21.3204 6.16254C20.6098 6.87321 20.2105 7.83707 20.2105 8.84211H27.7895C27.7895 7.83707 27.3902 6.87321 26.6796 6.16254C25.9689 5.45188 25.005 5.05263 24 5.05263Z" fill="#DB5C5C"/>
</svg>
